# xmcd CD database file
#
# Track frame offsets:
#	150
#	55741
#	73171
#	82203
#	94317
#	119579
#	132308
#	146780
#	174266
#
# Disc length: 2509 seconds
#
# Revision: 0
# Processed by: cddbd v1.5.2PL0 Copyright (c) Steve Scherf et al.
# Submitted via: CDex 1.70beta2
#
DISCID=8909cb09
DTITLE=Zoot Sims - 5658
DYEAR=1900
DGENRE=Jazz
TTITLE0=I'll Remember April
TTITLE1=A night In Tunisia
TTITLE2=Red Door
TTITLE3=Broadway
TTITLE4=Indian Summer
TTITLE5=The Theme
TTITLE6=Sunday
TTITLE7=Willow Weep For Me
TTITLE8=Sunday
EXTD=
EXTT0=
EXTT1=
EXTT2=
EXTT3=
EXTT4=
EXTT5=
EXTT6=
EXTT7=
EXTT8=
PLAYORDER=
